<svg width="512" height="512" viewBox="0 0 512 512" fill="none" xmlns="http://www.w3.org/2000/svg">
<g clip-path="url(#clip0_42_385)">
<path d="M130.918 386.784C130.424 386.191 129.936 385.604 129.452 385.025C131.722 383.149 134.037 381.177 136.372 379.188C137.647 378.103 138.927 377.012 140.21 375.929C146.338 370.754 152.808 365.486 159.893 360.728C174.001 351.254 190.26 344 210.144 344C226.759 344 242.87 346.862 257.857 355.108C271.924 362.849 285.539 375.63 297.718 396.361C286.48 413.246 256.925 439.73 212.039 437.91C172.135 436.293 148.236 407.586 130.918 386.784Z" fill="#49932B" stroke="#49932B" stroke-width="16"/>
<path d="M368.106 139.763C352.392 136.193 338.284 130.075 327.17 125.2C327.5 124.298 327.835 123.378 328.176 122.443C331.82 112.435 336.122 100.622 342.484 88.7881C351.016 72.9177 362.572 58.4917 379.346 50.7665C393.782 44.1184 409.989 39.5607 427.434 40.3648C443.821 41.1201 461.806 46.6265 480.924 60.392C479.343 79.3757 468.623 111.548 426.305 134.312C407.591 144.378 387.218 144.106 368.106 139.763Z" fill="#49932B" stroke="#49932B" stroke-width="16"/>
<path d="M223.062 256.316C222.097 255.076 221.159 253.87 220.244 252.704C221.855 251.366 223.492 249.985 225.165 248.575C233.065 241.917 241.752 234.595 252.095 227.905C267.124 218.184 283.95 211.102 302.619 211.991C332.752 213.426 368.742 227.211 391.901 273.092C387.045 280.254 377.84 289.398 364.717 297.182C349.611 306.141 329.798 313 306.5 313C284.365 313 265.855 301.849 250.449 287.518C239.184 277.038 230.368 265.706 223.062 256.316Z" fill="#49932B" stroke="#49932B" stroke-width="16"/>
<path d="M204.694 205.836C206.335 206.705 207.926 207.546 209.458 208.366C210.733 205.962 212.093 203.453 213.488 200.879C214.818 198.423 216.181 195.909 217.533 193.37C221.976 185.023 226.551 175.96 230.401 166.358C238.13 147.082 242.644 126.344 237.731 105.739C229.763 72.3252 203.006 31.7795 153.288 19.1027C132.94 39.2208 117.214 75.3501 126.698 125.128C131.425 149.936 147.361 168.175 165.805 182.162C179.3 192.397 193.221 199.764 204.694 205.836Z" fill="#49932B" stroke="#49932B" stroke-width="16"/>
<path d="M126.612 299.473C127.828 299.566 129.026 299.657 130.205 299.752C130.303 298.73 130.404 297.7 130.506 296.662C131.318 288.388 132.183 279.574 131.946 270.032C131.607 256.432 128.945 243.053 120.939 231.577C113.163 220.43 103.79 211.405 91.6618 205.724C80.4232 200.459 66.2662 197.807 47.878 199.588C41.8793 214.142 38.1281 243.173 58.4822 271.311C68.6113 285.314 82.8755 292.058 97.6951 295.58C108.165 298.068 117.853 298.806 126.612 299.473Z" fill="#49932B" stroke="#49932B" stroke-width="16"/>
<path d="M164.5 265C77.0002 361.5 51.3334 449.833 50.0001 480.5C49.7827 485.5 51.5003 494.763 66.5002 498C81.5002 501.237 92.5002 495.499 94.0001 485.5C99.2256 450.662 119.5 377.5 188.5 283.5C257.5 189.5 324.5 145 329.5 134.5C334.5 124 324.833 118.5 318 121.5C303.667 128.167 254.071 166.216 164.5 265Z" fill="#49932B"/>
</g>
<defs>
<clipPath id="clip0_42_385">
<rect width="512" height="512" fill="white"/>
</clipPath>
</defs>
</svg>
