
        <svg xmlns="http://www.w3.org/2000/svg" xmlns:xlink="http://www.w3.org/1999/xlink" version="1.1" width="3162.1621621621625" height="729.7297297297298" viewBox="0 0 3162.1621621621625 729.7297297297298">
			
			<g transform="scale(8.108108108108109) translate(10, 10)">
				<defs id="SvgjsDefs10308"/><g id="SvgjsG10309" featureKey="symbolFeature-0" transform="matrix(1.09375,0,0,1.09375,0,0)" fill="#fff"><g xmlns="http://www.w3.org/2000/svg"><path d="M58,0H6C2.7,0,0,2.7,0,6v52c0,3.3,2.7,6,6,6h52c3.299,0,6-2.7,6-6V6C64,2.7,61.299,0,58,0z M50.805,7.285h5.986v4.912   h-5.986V7.285z M7.209,7.285h23.947v4.912H7.209V7.285z M57.328,56.111H6.671V18.645h50.657V56.111z"/><g><rect x="10.969" y="40.137" width="19.066" height="8.289"/><rect x="33.965" y="40.137" width="19.066" height="8.289"/></g><rect x="22.467" y="27.855" width="19.066" height="8.289"/></g></g><g id="SvgjsG10310" featureKey="nameFeature-0" transform="matrix(1.65055412053418,0,0,1.65055412053418,87.35911218722472,-11.788958686585605)" fill="#fff"><path d="M10.44 36.6 q2.24 0 3.4 -0.24 l0 -5.36 q-0.4 -0.12 -1.16 -0.24 t-1.68 -0.12 q-0.8 0 -1.62 0.12 t-1.48 0.44 t-1.06 0.9 t-0.4 1.46 q0 1.72 1.08 2.38 t2.92 0.66 z M10.04 18.56 q2.4 0 4.04 0.6 t2.62 1.68 t1.4 2.62 t0.42 3.38 l0 12.68 q-1.12 0.24 -3.38 0.58 t-5.1 0.34 q-1.88 0 -3.44 -0.36 t-2.66 -1.16 t-1.72 -2.08 t-0.62 -3.16 q0 -1.8 0.7 -3.04 t1.9 -2.02 t2.78 -1.12 t3.3 -0.34 q0.8 0 1.68 0.1 t1.88 0.34 l0 -0.8 q0 -0.84 -0.2 -1.6 t-0.7 -1.34 t-1.32 -0.9 t-2.06 -0.32 q-1.68 0 -3.08 0.24 t-2.28 0.56 l-0.6 -3.92 q0.92 -0.32 2.68 -0.64 t3.76 -0.32 z M29.68 36.52 q1.92 0 2.8 -0.46 t0.88 -1.58 q0 -1.04 -0.94 -1.72 t-3.1 -1.48 q-1.32 -0.48 -2.42 -1.02 t-1.9 -1.26 t-1.26 -1.74 t-0.46 -2.5 q0 -2.88 2.12 -4.54 t5.76 -1.66 q1.84 0 3.52 0.34 t2.52 0.66 l-0.88 3.92 q-0.8 -0.36 -2.04 -0.66 t-2.88 -0.3 q-1.48 0 -2.4 0.5 t-0.92 1.54 q0 0.52 0.18 0.92 t0.62 0.74 t1.16 0.68 t1.76 0.7 q1.72 0.64 2.92 1.26 t1.98 1.4 t1.14 1.78 t0.36 2.4 q0 3 -2.22 4.54 t-6.34 1.54 q-2.76 0 -4.44 -0.46 t-2.36 -0.74 l0.84 -4.04 q1.08 0.44 2.58 0.84 t3.42 0.4 z M47.96 36.52 q1.92 0 2.8 -0.46 t0.88 -1.58 q0 -1.04 -0.94 -1.72 t-3.1 -1.48 q-1.32 -0.48 -2.42 -1.02 t-1.9 -1.26 t-1.26 -1.74 t-0.46 -2.5 q0 -2.88 2.12 -4.54 t5.76 -1.66 q1.84 0 3.52 0.34 t2.52 0.66 l-0.88 3.92 q-0.8 -0.36 -2.04 -0.66 t-2.88 -0.3 q-1.48 0 -2.4 0.5 t-0.92 1.54 q0 0.52 0.18 0.92 t0.62 0.74 t1.16 0.68 t1.76 0.7 q1.72 0.64 2.92 1.26 t1.98 1.4 t1.14 1.78 t0.36 2.4 q0 3 -2.22 4.54 t-6.34 1.54 q-2.76 0 -4.44 -0.46 t-2.36 -0.74 l0.84 -4.04 q1.08 0.44 2.58 0.84 t3.42 0.4 z M59.84 29.64 q0 -2.76 0.82 -4.84 t2.18 -3.46 t3.12 -2.08 t3.6 -0.7 q4.32 0 6.74 2.68 t2.42 8 q0 0.4 -0.02 0.9 t-0.06 0.9 l-13.8 0 q0.2 2.52 1.78 3.9 t4.58 1.38 q1.76 0 3.22 -0.32 t2.3 -0.68 l0.64 3.96 q-0.4 0.2 -1.1 0.42 t-1.6 0.4 t-1.94 0.3 t-2.12 0.12 q-2.76 0 -4.8 -0.82 t-3.36 -2.28 t-1.96 -3.44 t-0.64 -4.34 z M73.88 27.48 q0 -1 -0.28 -1.9 t-0.82 -1.56 t-1.32 -1.04 t-1.86 -0.38 q-1.12 0 -1.96 0.42 t-1.42 1.1 t-0.9 1.56 t-0.44 1.8 l9 0 z M95.76 29 q0 -3.28 -0.82 -4.74 t-3.06 -1.46 q-0.8 0 -1.76 0.12 t-1.44 0.2 l0 16.88 l-4.84 0 l0 -20.24 q1.4 -0.4 3.66 -0.76 t4.78 -0.36 q2.16 0 3.54 0.56 t2.3 1.48 q0.44 -0.32 1.12 -0.68 t1.52 -0.66 t1.78 -0.5 t1.9 -0.2 q2.44 0 4.02 0.7 t2.48 1.96 t1.24 3.04 t0.34 3.9 l0 11.76 l-4.84 0 l0 -11 q0 -3.28 -0.8 -4.74 t-3.08 -1.46 q-1.16 0 -2.2 0.38 t-1.56 0.74 q0.32 1 0.44 2.12 t0.12 2.4 l0 11.56 l-4.84 0 l0 -11 z M132.32000000000002 29.48 q0 -3.08 -1.22 -4.88 t-3.86 -1.8 q-1.2 0 -2.26 0.36 t-1.7 0.8 l0 12.04 q0.52 0.12 1.34 0.22 t1.98 0.1 q2.68 0 4.2 -1.82 t1.52 -5.02 z M137.28000000000003 29.560000000000002 q0 2.52 -0.74 4.54 t-2.12 3.46 t-3.34 2.2 t-4.44 0.76 q-2.4 0 -4.58 -0.36 t-3.62 -0.8 l0 -29.6 l4.84 -0.8 l0 10.84 q0.84 -0.44 2.06 -0.8 t2.7 -0.36 q2.2 0 3.94 0.78 t2.9 2.22 t1.78 3.46 t0.62 4.46 z M149.56 40.4 q-2.16 -0.04 -3.58 -0.48 t-2.26 -1.26 t-1.18 -2.04 t-0.34 -2.78 l0 -24.08 l4.84 -0.8 l0 23.96 q0 0.88 0.14 1.48 t0.5 1.02 t0.98 0.64 t1.58 0.34 z M171.24 19.08 q-3.24 11.92 -7.52 21.6 q-0.8 1.8 -1.64 3.08 t-1.88 2.12 t-2.32 1.22 t-2.96 0.38 q-1.12 0 -2.22 -0.24 t-1.66 -0.52 l0.88 -3.88 q1.44 0.56 2.84 0.56 q1.88 0 2.94 -0.9 t1.86 -2.78 q-2.28 -4.4 -4.38 -9.6 t-3.74 -11.04 l5.16 0 q0.4 1.68 0.98 3.64 t1.26 3.98 t1.44 4.02 t1.52 3.72 q1.28 -3.56 2.4 -7.58 t2.04 -7.78 l5 0 z"/></g>
			</g>
		</svg>
	